<mxfile host="app.diagrams.net" modified="2023-04-10T21:50:37.072Z" agent="Mozilla/5.0 (Windows NT 10.0; Win64; x64) AppleWebKit/537.36 (KHTML, like Gecko) Chrome/112.0.0.0 Safari/537.36 Edg/112.0.1722.34" version="21.1.5" etag="5UBNRbCn7zslGEQLWL-v" type="github">
  <diagram name="Page-1" id="e1mMzADLOqwQGpp4IVVd">
    <mxGraphModel>
      <root>
        <mxCell id="0" />
        <mxCell id="1" parent="0" />
        <mxCell id="2" value="Build Docker images" style="whiteSpace=wrap;strokeWidth=2;" vertex="1" parent="1">
          <mxGeometry width="160" height="34" as="geometry" />
        </mxCell>
        <mxCell id="3" value="Deploy on Kubernetes" style="whiteSpace=wrap;strokeWidth=2;" vertex="1" parent="1">
          <mxGeometry x="246" width="171" height="34" as="geometry" />
        </mxCell>
        <mxCell id="4" value="Set up monitoring system" style="whiteSpace=wrap;strokeWidth=2;" vertex="1" parent="1">
          <mxGeometry x="503" width="197" height="34" as="geometry" />
        </mxCell>
        <mxCell id="5" value="Done" style="curved=1;startArrow=none;endArrow=block;exitX=0.9977702140808106;exitY=0.4950980579151827;entryX=-0.0028173435501187864;entryY=0.4950980579151827;" edge="1" parent="1" source="2" target="3">
          <mxGeometry relative="1" as="geometry">
            <Array as="points" />
          </mxGeometry>
        </mxCell>
        <mxCell id="6" value="Done" style="curved=1;startArrow=none;endArrow=block;exitX=0.9979745965254935;exitY=0.4950980579151827;entryX=-0.0023926091073128175;entryY=0.4950980579151827;" edge="1" parent="1" source="3" target="4">
          <mxGeometry relative="1" as="geometry">
            <Array as="points" />
          </mxGeometry>
        </mxCell>
      </root>
    </mxGraphModel>
  </diagram>
</mxfile>
